<svg width="64" height="64" viewBox="0 0 64 64" fill="none" xmlns="http://www.w3.org/2000/svg">
  <defs>
    <linearGradient id="fbg" x1="0" y1="0" x2="64" y2="64" gradientUnits="userSpaceOnUse">
      <stop stop-color="#0b1326"/><stop offset="1" stop-color="#0a0f1f"/>
    </linearGradient>
    <linearGradient id="fla" x1="16" y1="18" x2="32" y2="50" gradientUnits="userSpaceOnUse"><stop stop-color="#7ef0e0"/><stop offset="1" stop-color="#22d3ee"/></linearGradient>
    <linearGradient id="flb" x1="26" y1="18" x2="32" y2="50" gradientUnits="userSpaceOnUse"><stop stop-color="#1f9fd4"/><stop offset="1" stop-color="#2563eb"/></linearGradient>
    <linearGradient id="frb" x1="38" y1="18" x2="32" y2="50" gradientUnits="userSpaceOnUse"><stop stop-color="#3b4fd6"/><stop offset="1" stop-color="#4f46e5"/></linearGradient>
    <linearGradient id="fra" x1="48" y1="18" x2="32" y2="50" gradientUnits="userSpaceOnUse"><stop stop-color="#a855f7"/><stop offset="1" stop-color="#7c5cf6"/></linearGradient>
  </defs>
  <rect width="64" height="64" rx="15" fill="url(#fbg)"/>
  <rect x="0.75" y="0.75" width="62.5" height="62.5" rx="14.25" fill="none" stroke="#22d3ee" stroke-opacity="0.18"/>
  <path d="M16 18 L27 18 L32 50 Z" fill="url(#fla)"/>
  <path d="M27 18 L32 39 L32 50 Z" fill="url(#flb)"/>
  <path d="M37 18 L32 39 L32 50 Z" fill="url(#frb)"/>
  <path d="M48 18 L37 18 L32 50 Z" fill="url(#fra)"/>
  <path d="M27 18 L32 50 M37 18 L32 50" stroke="#eafcff" stroke-width="0.6" opacity="0.35"/>
</svg>
