<svg width="512" height="512" viewBox="0 0 512 512" fill="none" xmlns="http://www.w3.org/2000/svg" role="img" aria-label="VisionYX">
  <defs>
    <linearGradient id="ai-bg" x1="0" y1="0" x2="512" y2="512" gradientUnits="userSpaceOnUse">
      <stop stop-color="#101c38"/><stop offset="0.55" stop-color="#0b1326"/><stop offset="1" stop-color="#080d1c"/>
    </linearGradient>
    <radialGradient id="ai-halo" cx="0.5" cy="0.42" r="0.6">
      <stop stop-color="#3b82f6" stop-opacity="0.35"/><stop offset="1" stop-color="#3b82f6" stop-opacity="0"/>
    </radialGradient>
    <linearGradient id="ai-la" x1="16" y1="22" x2="50" y2="84" gradientUnits="userSpaceOnUse"><stop stop-color="#7ef0e0"/><stop offset="1" stop-color="#22d3ee"/></linearGradient>
    <linearGradient id="ai-lb" x1="34" y1="22" x2="50" y2="84" gradientUnits="userSpaceOnUse"><stop stop-color="#1f9fd4"/><stop offset="1" stop-color="#2563eb"/></linearGradient>
    <linearGradient id="ai-rb" x1="66" y1="22" x2="50" y2="84" gradientUnits="userSpaceOnUse"><stop stop-color="#3b4fd6"/><stop offset="1" stop-color="#4f46e5"/></linearGradient>
    <linearGradient id="ai-ra" x1="84" y1="22" x2="50" y2="84" gradientUnits="userSpaceOnUse"><stop stop-color="#a855f7"/><stop offset="1" stop-color="#7c5cf6"/></linearGradient>
    <filter id="ai-glow" x="-50%" y="-50%" width="200%" height="200%">
      <feGaussianBlur stdDeviation="11" result="b"/><feMerge><feMergeNode in="b"/><feMergeNode in="SourceGraphic"/></feMerge>
    </filter>
  </defs>

  <rect width="512" height="512" rx="116" fill="url(#ai-bg)"/>
  <rect width="512" height="512" rx="116" fill="url(#ai-halo)"/>
  <rect x="3" y="3" width="506" height="506" rx="113" fill="none" stroke="#5cc8ff" stroke-opacity="0.16" stroke-width="2"/>

  <g filter="url(#ai-glow)" transform="translate(86 84) scale(3.4)">
    <path d="M16 22 L34 22 L50 84 Z" fill="url(#ai-la)"/>
    <path d="M34 22 L50 56 L50 84 Z" fill="url(#ai-lb)"/>
    <path d="M66 22 L50 56 L50 84 Z" fill="url(#ai-rb)"/>
    <path d="M84 22 L66 22 L50 84 Z" fill="url(#ai-ra)"/>
    <path d="M34 22 L50 84 M66 22 L50 84" stroke="#eafcff" stroke-width="0.8" opacity="0.45"/>
  </g>
</svg>
